<svg xmlns="http://www.w3.org/2000/svg" xmlns:xlink="http://www.w3.org/1999/xlink" width="664" zoomAndPan="magnify" viewBox="418 537 664 434" height="434" preserveAspectRatio="xMidYMid meet" version="1.0"><path fill="#374b9b" d="M 1039.402344 816.75 L 943.515625 898.453125 L 912.320312 864.386719 L 878.890625 886.296875 L 833.703125 858.582031 L 794.40625 864.261719 L 759.722656 902.378906 L 691.148438 888.199219 L 687.035156 887.007812 L 684.257812 909.125 L 688.203125 950.957031 L 514.183594 947.410156 L 529.488281 857.015625 L 438.03125 760.316406 L 572.191406 579.550781 L 656.257812 618.230469 L 763.1875 562.96875 L 833.828125 605.992188 L 875.257812 583.5 L 986.132812 646.65625 L 982.582031 705.847656 L 1023.21875 797.03125 Z M 1039.402344 816.75 " fill-opacity="1" fill-rule="nonzero"/><path fill="#374b9b" d="M 485.011719 657.976562 L 511.90625 614.222656 L 539.84375 614.453125 L 455.425781 731.328125 L 453.628906 713.367188 Z M 485.011719 657.976562 " fill-opacity="1" fill-rule="nonzero"/><path fill="#5397d2" d="M 996.304688 702.335938 L 1009.769531 647.429688 L 881.164062 574.621094 L 839.300781 593.859375 L 771.519531 557.140625 L 662.167969 599.183594 L 576.34375 569.089844 L 463.878906 725.769531 L 555.421875 822.472656 L 542.414062 911.277344 L 712.488281 918 L 703.40625 849.707031 L 771.664062 869.839844 L 803.632812 831.160156 L 847.441406 826.417969 L 895.574219 854.445312 L 942.285156 821.929688 L 967.152344 860.421875 L 1061.996094 784.480469 Z M 777.03125 842.917969 L 745.917969 849.519531 L 723.429688 839.449219 L 720.570312 824.851562 L 733.203125 811.714844 L 765.757812 811.421875 L 780.207031 825.207031 Z M 911.882812 822.742188 L 886.949219 825.625 L 882.417969 811.945312 L 868.824219 815.347656 L 854.980469 796.78125 L 879.535156 796.78125 L 867.257812 781.390625 L 892.710938 781.390625 L 896.953125 796.53125 L 910.085938 791.601562 L 923.574219 805.15625 L 902.777344 808.917969 Z M 911.882812 822.742188 " fill-opacity="1" fill-rule="nonzero"/><path fill="#5397d2" d="M 998.515625 632.933594 L 901.003906 579.65625 L 914.617188 566.914062 L 998.515625 616.058594 Z M 998.515625 632.933594 " fill-opacity="1" fill-rule="nonzero"/><path fill="#5397d2" d="M 474.53125 691.433594 L 469.414062 674.476562 L 528.589844 580.136719 L 555.421875 582.515625 Z M 474.53125 691.433594 " fill-opacity="1" fill-rule="nonzero"/><path fill="#374b9b" d="M 929.148438 626 L 928.023438 621.699219 C 928.023438 621.699219 922.78125 618.148438 920.402344 618.417969 C 920.023438 618.460938 919.667969 618.566406 919.335938 618.710938 C 918.1875 619.214844 917.246094 620.195312 916.703125 620.84375 C 916.390625 621.238281 916.203125 621.511719 916.203125 621.511719 C 916.203125 621.511719 910.984375 617.605469 905.074219 617.605469 C 903.84375 617.605469 900.730469 620.800781 898.578125 623.160156 L 898.121094 623.097656 L 896.179688 624.644531 L 894.65625 618.523438 L 882.585938 618.941406 L 882.398438 618.941406 L 881.980469 618.191406 L 880.394531 622.285156 L 878.847656 618.292969 L 870.976562 618.546875 L 870.976562 622.199219 C 867.84375 620.445312 864.792969 618.753906 864.792969 618.753906 L 863.980469 620.863281 L 863.582031 621.90625 L 861.160156 621.261719 C 858.925781 619.902344 856.359375 619.023438 853.582031 618.816406 C 853.5625 618.816406 853.5625 618.816406 853.539062 618.816406 C 852.871094 618.753906 852.203125 618.753906 851.554688 618.796875 C 851.265625 618.773438 850.949219 618.796875 850.660156 618.835938 C 850.636719 618.835938 850.636719 618.835938 850.636719 618.835938 C 847.277344 619.128906 844.144531 620.445312 841.597656 622.449219 C 838.984375 624.519531 836.980469 627.335938 835.9375 630.597656 L 834.914062 627.691406 C 834.578125 628.007812 834.265625 628.339844 833.972656 628.675781 L 832.492188 630.367188 L 826.25 625.917969 L 824.828125 621.96875 L 820.839844 622.074219 L 803.65625 609.878906 L 791.960938 622.910156 L 796.035156 635.066406 L 805.722656 634.730469 L 808.519531 642.960938 L 796.492188 661.171875 L 795.59375 662.550781 L 793.800781 665.246094 L 798.183594 665.246094 C 798.6875 665.621094 799.1875 665.996094 799.707031 666.351562 C 799.855469 666.457031 800 666.5625 800.167969 666.644531 C 801.546875 667.5625 803.027344 668.292969 804.59375 668.898438 C 805.074219 669.085938 805.578125 669.253906 806.078125 669.402344 C 810.421875 670.945312 815.179688 671.613281 820.089844 671.21875 C 827.710938 670.589844 834.515625 667.5 839.800781 662.78125 C 842.890625 666.539062 847.589844 668.941406 852.828125 668.941406 C 853.183594 668.941406 853.519531 668.921875 853.875 668.898438 L 854.4375 668.859375 C 854.773438 668.835938 855.105469 668.796875 855.417969 668.753906 C 855.835938 668.691406 856.234375 668.609375 856.628906 668.523438 C 859.992188 667.730469 862.957031 665.976562 865.210938 663.53125 L 866.632812 667.417969 L 881.414062 666.664062 L 883.648438 663.929688 L 884.652344 666.519531 L 899.121094 665.789062 L 905.199219 658.226562 L 908.082031 665.347656 L 922.238281 664.640625 L 929.128906 659.730469 L 931.007812 664.199219 L 944.871094 663.511719 L 955.25 650.144531 Z M 868.824219 629.699219 L 868.136719 629.425781 C 867.695312 628.359375 867.152344 627.335938 866.507812 626.398438 C 867.863281 626.710938 868.992188 626.648438 869.910156 626.355469 Z M 888.871094 630.511719 L 887.660156 628.359375 L 890.582031 629.132812 Z M 888.871094 630.511719 " fill-opacity="1" fill-rule="nonzero"/><path fill="#ffffff" d="M 629.132812 656.871094 C 629.089844 656.429688 628.984375 655.597656 628.839844 654.363281 C 628.695312 653.152344 628.527344 651.941406 628.316406 650.730469 C 628.253906 650.394531 628.214844 650.101562 628.171875 649.832031 C 628.027344 649.058594 627.941406 648.496094 627.859375 648.097656 L 596.914062 649.476562 L 597.289062 660.984375 L 611.070312 660.296875 C 610.988281 660.984375 610.800781 661.652344 610.484375 662.300781 C 610.003906 663.386719 609.296875 664.324219 608.375 665.140625 C 607.457031 665.957031 606.332031 666.625 604.992188 667.125 C 603.679688 667.648438 602.195312 667.960938 600.566406 668.042969 C 598.167969 668.167969 595.953125 667.9375 593.90625 667.332031 C 591.859375 666.726562 590.105469 665.828125 588.625 664.640625 C 587.140625 663.46875 585.992188 662.027344 585.15625 660.316406 C 584.320312 658.644531 583.90625 656.808594 583.882812 654.824219 C 583.863281 652.839844 584.238281 651.023438 584.988281 649.308594 C 585.742188 647.617188 586.765625 646.15625 588.101562 644.945312 C 589.417969 643.710938 590.960938 642.75 592.757812 642.019531 C 594.554688 641.308594 596.515625 640.890625 598.6875 640.808594 C 600.777344 640.726562 602.65625 640.851562 604.347656 641.183594 C 606.039062 641.519531 607.582031 642.019531 608.980469 642.648438 C 610.382812 643.292969 611.71875 644.046875 612.96875 644.902344 L 623.472656 634.835938 C 621.550781 633.4375 619.339844 632.203125 616.792969 631.117188 C 614.265625 630.054688 611.46875 629.238281 608.375 628.652344 C 605.308594 628.089844 602.007812 627.859375 598.457031 627.964844 C 593.300781 628.152344 588.644531 628.925781 584.425781 630.304688 C 580.167969 631.703125 576.472656 633.601562 573.316406 636.027344 C 570.101562 638.46875 567.617188 641.351562 565.820312 644.652344 C 564.027344 648.015625 563.042969 651.730469 562.917969 655.804688 C 562.792969 659.898438 563.460938 663.679688 564.945312 667.167969 C 566.449219 670.675781 568.746094 673.703125 571.835938 676.230469 C 574.96875 678.757812 578.808594 680.636719 583.382812 681.890625 C 587.957031 683.121094 593.175781 683.5625 599.023438 683.1875 C 603.804688 682.894531 608.148438 681.996094 612.050781 680.46875 C 615.894531 678.964844 619.171875 677.023438 621.867188 674.644531 C 624.519531 672.285156 626.460938 669.566406 627.734375 666.5 C 627.941406 666.019531 628.109375 665.539062 628.277344 665.035156 C 629.113281 662.445312 629.402344 659.710938 629.132812 656.871094 Z M 629.132812 656.871094 " fill-opacity="1" fill-rule="nonzero"/><path fill="#ffffff" d="M 674.589844 637.824219 L 657.925781 638.492188 L 658.511719 642.230469 C 657.699219 641.5625 656.800781 640.976562 655.859375 640.453125 C 654.417969 639.679688 652.832031 639.097656 651.058594 638.699219 C 649.304688 638.300781 647.402344 638.15625 645.335938 638.21875 C 641.410156 638.386719 638.027344 639.347656 635.1875 641.144531 C 632.328125 642.9375 630.175781 645.382812 628.734375 648.453125 C 628.527344 648.914062 628.339844 649.371094 628.171875 649.832031 C 627.128906 652.652344 626.773438 655.804688 627.085938 659.335938 C 627.273438 661.339844 627.648438 663.261719 628.277344 665.035156 C 628.902344 666.914062 629.757812 668.691406 630.867188 670.300781 C 633.035156 673.515625 635.835938 675.980469 639.257812 677.714844 C 642.683594 679.425781 646.484375 680.179688 650.597656 679.925781 C 652.8125 679.78125 654.796875 679.363281 656.550781 678.695312 C 658.304688 678.027344 659.828125 677.148438 661.121094 676.105469 C 661.832031 675.542969 662.457031 674.9375 663.042969 674.265625 L 663.667969 678.382812 L 682.023438 677.253906 Z M 660.683594 662.257812 C 660.265625 663.554688 659.492188 664.578125 658.386719 665.285156 C 657.257812 666.039062 655.839844 666.433594 654.105469 666.539062 C 652.371094 666.625 650.871094 666.371094 649.574219 665.765625 C 648.300781 665.183594 647.257812 664.242188 646.464844 663.011719 C 645.671875 661.757812 645.167969 660.234375 644.9375 658.4375 C 644.730469 656.640625 644.835938 655.09375 645.292969 653.800781 C 645.753906 652.527344 646.527344 651.542969 647.613281 650.855469 C 648.699219 650.164062 650.074219 649.789062 651.746094 649.707031 C 653.4375 649.644531 654.898438 649.894531 656.171875 650.457031 C 657.46875 651.023438 658.492188 651.921875 659.285156 653.132812 C 660.097656 654.34375 660.640625 655.847656 660.914062 657.621094 C 661.183594 659.417969 661.121094 660.964844 660.683594 662.257812 Z M 660.683594 662.257812 " fill-opacity="1" fill-rule="nonzero"/><path fill="#ffffff" d="M 754.417969 657.101562 L 754.417969 657.078125 L 751.722656 649.015625 L 751.597656 648.660156 C 750.535156 645.507812 749.074219 642.875 747.171875 640.746094 C 745.3125 638.636719 743.039062 637.089844 740.363281 636.089844 C 737.691406 635.085938 734.644531 634.648438 731.21875 634.792969 C 729.964844 634.835938 728.714844 635.023438 727.417969 635.316406 C 726.144531 635.609375 724.914062 636.046875 723.765625 636.632812 C 722.59375 637.214844 721.574219 637.949219 720.695312 638.78125 C 720.070312 639.390625 719.546875 640.078125 719.148438 640.851562 C 718.167969 639.804688 717.167969 638.949219 716.121094 638.300781 C 714.515625 637.277344 712.824219 636.589844 711.070312 636.234375 C 709.316406 635.878906 707.5 635.734375 705.621094 635.816406 C 704.511719 635.859375 703.34375 636.003906 702.175781 636.234375 C 700.960938 636.445312 699.835938 636.820312 698.769531 637.320312 C 697.683594 637.820312 696.703125 638.449219 695.804688 639.242188 C 695.449219 639.578125 695.117188 639.933594 694.824219 640.328125 L 693.695312 637.050781 L 678.308594 637.65625 L 686.011719 677.003906 L 703.84375 675.917969 L 698.375 652.085938 C 698.226562 651.417969 698.226562 650.8125 698.394531 650.269531 C 698.539062 649.746094 698.8125 649.246094 699.1875 648.808594 C 699.542969 648.371094 700.066406 648.015625 700.691406 647.785156 C 701.339844 647.535156 702.070312 647.386719 702.882812 647.367188 C 703.929688 647.304688 704.867188 647.449219 705.703125 647.785156 C 706.515625 648.140625 707.226562 648.640625 707.769531 649.332031 C 708.332031 650.019531 708.75 650.898438 709.003906 651.921875 L 714.828125 675.226562 L 732.117188 674.164062 L 725.519531 650.769531 C 725.332031 650.101562 725.289062 649.519531 725.414062 648.996094 C 725.539062 648.472656 725.769531 647.992188 726.125 647.554688 C 726.457031 647.117188 726.917969 646.78125 727.523438 646.53125 C 728.148438 646.300781 728.839844 646.15625 729.652344 646.113281 C 730.65625 646.070312 731.574219 646.21875 732.410156 646.550781 C 733.222656 646.886719 733.933594 647.386719 734.519531 648.054688 C 735.101562 648.746094 735.542969 649.601562 735.855469 650.625 L 742.765625 673.515625 L 759.554688 672.492188 Z M 754.417969 657.101562 " fill-opacity="1" fill-rule="nonzero"/><path fill="#ffffff" d="M 795.492188 663.050781 L 787.222656 656.347656 C 786.304688 657.203125 785.363281 657.832031 784.382812 658.25 C 783.402344 658.667969 782.148438 658.917969 780.582031 659 C 778.242188 659.125 776.132812 658.875 774.277344 658.269531 C 772.417969 657.644531 770.851562 656.703125 769.578125 655.492188 C 769.453125 655.386719 769.347656 655.261719 769.242188 655.136719 L 794.949219 653.800781 L 793.820312 650.917969 C 792.796875 648.179688 791.355469 645.71875 789.496094 643.503906 C 787.660156 641.289062 785.53125 639.410156 783.128906 637.863281 C 780.75 636.296875 778.179688 635.148438 775.425781 634.355469 C 772.6875 633.582031 769.847656 633.25 766.90625 633.375 C 763.941406 633.476562 761.390625 634.042969 759.222656 635.023438 C 757.027344 636.003906 755.273438 637.363281 753.980469 639.097656 C 752.683594 640.851562 751.890625 642.898438 751.640625 645.238281 C 751.496094 646.449219 751.515625 647.699219 751.722656 649.015625 C 751.871094 650.289062 752.183594 651.628906 752.644531 652.984375 C 753.125 654.40625 753.707031 655.785156 754.417969 657.078125 L 754.417969 657.097656 C 755.609375 659.273438 757.113281 661.277344 758.949219 663.09375 C 761.933594 666.039062 765.527344 668.292969 769.765625 669.859375 C 774.003906 671.449219 778.617188 672.074219 783.589844 671.761719 C 785.488281 671.65625 787.304688 671.363281 788.996094 670.90625 C 790.6875 670.445312 792.296875 669.757812 793.839844 668.859375 C 795.28125 668.042969 796.617188 666.957031 797.871094 665.578125 C 797.976562 665.476562 798.082031 665.347656 798.183594 665.246094 Z M 766.257812 647.472656 C 766.445312 646.449219 766.945312 645.632812 767.761719 645.046875 C 768.597656 644.464844 769.746094 644.128906 771.226562 644.066406 C 772.398438 644.003906 773.480469 644.152344 774.484375 644.464844 C 775.464844 644.777344 776.34375 645.257812 777.074219 645.882812 C 777.761719 646.46875 778.285156 647.179688 778.617188 647.972656 L 766.214844 648.578125 C 766.175781 648.179688 766.195312 647.804688 766.257812 647.472656 Z M 766.257812 647.472656 " fill-opacity="1" fill-rule="nonzero"/><path fill="#ffffff" d="M 577.117188 796.363281 L 613.890625 696.949219 L 636.460938 695.550781 L 687.808594 784.585938 L 656.550781 787.90625 L 635.3125 745.550781 C 633.996094 742.835938 632.871094 740.558594 631.910156 738.65625 C 630.96875 736.777344 630.132812 734.980469 629.425781 733.332031 C 628.714844 731.683594 627.984375 729.886719 627.230469 728.007812 C 626.5 726.105469 625.75 723.871094 624.933594 721.28125 L 629.613281 720.925781 C 629.320312 723.578125 628.984375 725.917969 628.609375 727.878906 C 628.234375 729.863281 627.816406 731.722656 627.378906 733.476562 C 626.917969 735.230469 626.375 737.132812 625.75 739.136719 C 625.125 741.164062 624.390625 743.628906 623.597656 746.53125 L 610.152344 792.835938 Z M 598.519531 778.007812 L 606.851562 755.699219 L 653.730469 751.523438 L 664.589844 771.46875 Z M 598.519531 778.007812 " fill-opacity="1" fill-rule="nonzero"/><path fill="#ffffff" d="M 696.558594 783.664062 L 687.871094 735.378906 L 689.957031 741.707031 L 644.835938 695.046875 L 675.65625 693.148438 L 710.546875 728.257812 L 692.796875 729.300781 L 710.003906 691.039062 L 738.257812 689.285156 L 716.371094 740.914062 L 716.414062 732.015625 L 727.210938 780.429688 Z M 696.558594 783.664062 " fill-opacity="1" fill-rule="nonzero"/><path fill="#ffffff" d="M 757.363281 777.191406 L 734.078125 689.492188 L 770.246094 687.257812 C 776.300781 686.882812 782.148438 687.46875 787.808594 689.011719 C 793.464844 690.558594 798.769531 692.898438 803.71875 696.03125 C 808.707031 699.183594 813.113281 703.070312 816.976562 707.707031 C 820.882812 712.40625 824.015625 717.75 826.351562 723.789062 C 828.710938 729.84375 829.882812 735.628906 829.839844 741.164062 C 829.796875 746.78125 828.546875 751.816406 826.0625 756.222656 C 823.535156 760.710938 819.921875 764.429688 815.246094 767.355469 C 810.484375 770.300781 804.71875 772.136719 797.933594 772.867188 Z M 780.4375 756.011719 L 773.691406 749.726562 L 789.351562 748.265625 C 792.109375 748.015625 794.425781 747.242188 796.304688 745.945312 C 798.183594 744.671875 799.605469 743.042969 800.628906 741.019531 C 801.628906 739.035156 802.132812 736.734375 802.152344 734.125 C 802.171875 731.554688 801.671875 728.800781 800.648438 725.898438 C 799.644531 723.015625 798.289062 720.425781 796.578125 718.085938 C 794.886719 715.765625 792.941406 713.824219 790.792969 712.238281 C 788.640625 710.671875 786.34375 709.480469 783.902344 708.667969 C 781.457031 707.871094 778.933594 707.558594 776.320312 707.746094 L 761.121094 708.855469 L 764.210938 702.878906 Z M 780.4375 756.011719 " fill-opacity="1" fill-rule="nonzero"/><path fill="#ffffff" d="M 844.183594 767.960938 L 835.289062 745.152344 L 849.90625 743.773438 L 832.949219 702.628906 L 819.085938 703.632812 L 811.695312 684.6875 L 861.496094 681.597656 L 870.140625 699.957031 L 856.816406 700.917969 L 875.046875 741.414062 L 889.058594 740.097656 L 899.414062 762.089844 Z M 844.183594 767.960938 " fill-opacity="1" fill-rule="nonzero"/><path fill="#ffffff" d="M 906.367188 761.359375 L 867.78125 681.242188 L 887.699219 680.011719 L 946.710938 725 L 940.988281 723.828125 C 938.941406 720.84375 937.1875 718.253906 935.707031 716.058594 C 934.246094 713.886719 932.886719 711.863281 931.675781 710.023438 C 930.464844 708.1875 929.335938 706.390625 928.230469 704.613281 C 927.125 702.839844 925.996094 700.898438 924.828125 698.789062 C 923.65625 696.699219 922.300781 694.277344 920.777344 691.519531 L 913.488281 678.421875 L 933.929688 677.148438 L 979.117188 753.632812 L 958.132812 755.867188 L 889.832031 702.484375 L 899.707031 704.445312 C 901.441406 707.097656 902.945312 709.4375 904.238281 711.421875 C 905.535156 713.449219 906.703125 715.308594 907.726562 717 C 908.75 718.710938 909.773438 720.425781 910.753906 722.117188 C 911.757812 723.828125 912.800781 725.730469 913.949219 727.839844 C 915.097656 729.96875 916.414062 732.496094 917.914062 735.398438 L 930.027344 758.832031 Z M 906.367188 761.359375 " fill-opacity="1" fill-rule="nonzero"/><path fill="#ffffff" d="M 839.945312 642.0625 C 839.90625 641.832031 839.84375 641.625 839.757812 641.414062 C 839.738281 641.332031 839.695312 641.246094 839.675781 641.164062 L 835.9375 630.597656 L 834.914062 627.691406 L 832.597656 621.09375 L 840.488281 620.820312 L 836.230469 608.9375 L 803.65625 609.878906 L 807.664062 621.929688 L 817.289062 621.613281 L 823.554688 640.015625 C 823.847656 640.871094 823.929688 641.601562 823.828125 642.230469 C 823.699219 642.855469 823.410156 643.355469 822.90625 643.710938 C 822.425781 644.085938 821.78125 644.277344 820.988281 644.316406 C 820.378906 644.339844 819.753906 644.277344 819.105469 644.089844 C 818.460938 643.898438 817.8125 643.671875 817.207031 643.335938 C 816.582031 643.023438 815.953125 642.625 815.308594 642.144531 C 814.660156 641.664062 814.011719 641.144531 813.363281 640.578125 L 807.101562 649.394531 C 808.417969 650.730469 809.816406 651.921875 811.320312 652.945312 C 812.84375 653.988281 814.449219 654.824219 816.164062 655.46875 C 817.875 656.117188 819.710938 656.578125 821.675781 656.890625 C 823.636719 657.183594 825.664062 657.289062 827.792969 657.183594 C 830.214844 657.058594 832.34375 656.621094 834.203125 655.847656 C 834.914062 655.554688 835.582031 655.199219 836.167969 654.78125 C 836.332031 654.699219 836.5 654.59375 836.648438 654.46875 C 837.398438 653.925781 838.066406 653.296875 838.609375 652.589844 C 839.550781 651.378906 840.175781 649.976562 840.46875 648.390625 C 840.53125 648.140625 840.574219 647.890625 840.59375 647.636719 C 840.824219 645.988281 840.59375 644.128906 839.945312 642.0625 Z M 839.945312 642.0625 " fill-opacity="1" fill-rule="nonzero"/><path fill="#ffffff" d="M 881.1875 624.351562 L 880.394531 622.285156 L 878.847656 618.292969 L 870.976562 618.546875 L 864.792969 618.753906 L 866.089844 622.199219 C 865.421875 621.71875 864.710938 621.261719 863.980469 620.863281 C 863.8125 620.757812 863.625 620.65625 863.457031 620.570312 C 862.082031 619.820312 860.597656 619.277344 859.011719 618.878906 C 857.421875 618.503906 855.773438 618.335938 854.0625 618.398438 C 853.957031 618.398438 853.851562 618.398438 853.769531 618.417969 C 853.707031 618.417969 853.644531 618.417969 853.601562 618.441406 C 852.539062 618.480469 851.554688 618.609375 850.660156 618.835938 C 850.636719 618.835938 850.636719 618.835938 850.636719 618.835938 C 850.074219 618.960938 849.550781 619.128906 849.050781 619.339844 C 847.964844 619.734375 847.003906 620.300781 846.148438 620.988281 C 844.164062 622.617188 842.953125 624.808594 842.492188 627.609375 C 842.035156 630.40625 842.453125 633.625 843.746094 637.257812 C 843.808594 637.425781 843.851562 637.570312 843.933594 637.738281 C 843.976562 637.863281 844.019531 638.011719 844.082031 638.136719 C 845.355469 641.394531 847.128906 644.277344 849.40625 646.804688 C 851.535156 649.183594 853.957031 651.105469 856.589844 652.546875 C 857.007812 652.753906 857.402344 652.964844 857.820312 653.152344 C 860.953125 654.636719 864.148438 655.28125 867.425781 655.136719 C 868.15625 655.09375 868.824219 655.011719 869.472656 654.886719 C 869.890625 654.800781 870.308594 654.71875 870.703125 654.59375 C 871.140625 654.488281 871.582031 654.34375 871.976562 654.175781 C 873.25 653.632812 874.316406 652.921875 875.171875 652.066406 C 875.632812 651.585938 876.050781 651.0625 876.363281 650.5 L 877.679688 653.988281 L 892.335938 653.257812 Z M 870.789062 642.792969 C 870.203125 643.253906 869.449219 643.566406 868.511719 643.710938 C 868.21875 643.773438 867.90625 643.796875 867.550781 643.816406 L 867.53125 643.816406 C 867.507812 643.816406 867.507812 643.816406 867.488281 643.816406 C 866.109375 643.878906 864.835938 643.648438 863.667969 643.105469 C 862.476562 642.585938 861.433594 641.769531 860.515625 640.683594 C 859.617188 639.597656 858.863281 638.238281 858.28125 636.652344 C 858.195312 636.445312 858.113281 636.234375 858.070312 636.027344 C 858.027344 635.921875 857.988281 635.816406 857.964844 635.734375 C 857.613281 634.523438 857.464844 633.476562 857.550781 632.558594 C 857.652344 631.429688 858.070312 630.554688 858.824219 629.949219 C 859.574219 629.34375 860.640625 629.007812 862.039062 628.96875 C 863.417969 628.902344 864.710938 629.15625 865.902344 629.675781 C 867.050781 630.179688 868.050781 630.949219 868.929688 631.972656 L 869.054688 632.101562 C 869.972656 633.207031 870.726562 634.542969 871.332031 636.109375 C 871.914062 637.695312 872.164062 639.054688 872.082031 640.183594 C 872 641.308594 871.558594 642.167969 870.789062 642.792969 Z M 870.789062 642.792969 " fill-opacity="1" fill-rule="nonzero"/><path fill="#ffffff" d="M 955.25 650.144531 L 941.511719 650.8125 L 933.035156 630.636719 C 932.636719 629.71875 932.136719 628.945312 931.570312 628.320312 C 930.988281 627.691406 930.320312 627.234375 929.566406 626.921875 C 928.816406 626.605469 928.023438 626.460938 927.164062 626.480469 C 926.476562 626.523438 925.914062 626.628906 925.410156 626.835938 C 924.933594 627.066406 924.578125 627.359375 924.347656 627.753906 C 924.117188 628.152344 923.992188 628.589844 923.972656 629.070312 C 923.929688 629.53125 924.035156 630.074219 924.285156 630.679688 L 932.804688 651.25 L 918.773438 651.941406 L 910.523438 631.554688 C 910.128906 630.597656 909.648438 629.824219 909.082031 629.195312 C 908.5 628.570312 907.832031 628.089844 907.078125 627.777344 C 906.304688 627.464844 905.492188 627.316406 904.613281 627.335938 C 903.925781 627.378906 903.339844 627.484375 902.839844 627.714844 C 902.339844 627.921875 901.960938 628.234375 901.734375 628.632812 C 901.480469 629.03125 901.335938 629.46875 901.292969 629.949219 C 901.253906 630.429688 901.355469 630.972656 901.609375 631.578125 L 909.875 652.402344 L 895.53125 653.109375 L 884.546875 624.832031 L 881.980469 618.191406 L 895.050781 617.75 L 896.597656 620.800781 C 896.785156 620.425781 896.992188 620.113281 897.242188 619.820312 C 897.847656 619.089844 898.578125 618.503906 899.414062 618.042969 C 900.269531 617.605469 901.167969 617.269531 902.152344 617.0625 C 903.152344 616.851562 904.113281 616.75 905.074219 616.707031 C 906.660156 616.664062 908.246094 616.8125 909.8125 617.167969 C 911.378906 617.5 912.945312 618.167969 914.492188 619.128906 C 915.222656 619.589844 915.972656 620.152344 916.703125 620.84375 C 916.953125 621.050781 917.207031 621.28125 917.457031 621.53125 C 917.6875 620.820312 918.019531 620.195312 918.480469 619.632812 C 918.730469 619.316406 919.023438 619.003906 919.335938 618.710938 C 919.773438 618.335938 920.253906 617.960938 920.796875 617.648438 C 921.714844 617.105469 922.71875 616.707031 923.78125 616.433594 C 924.847656 616.164062 925.914062 616.019531 927 615.996094 C 929.941406 615.890625 932.617188 616.332031 935.058594 617.292969 C 937.5 618.253906 939.652344 619.734375 941.511719 621.71875 C 943.371094 623.703125 944.933594 626.125 946.167969 629.03125 Z M 955.25 650.144531 " fill-opacity="1" fill-rule="nonzero"/></svg>