<svg id="Layer_1" data-name="Layer 1" xmlns="http://www.w3.org/2000/svg" viewBox="0 0 635.25 446"><defs><style>.cls-1{fill:#70270d;}.cls-2{fill:#48180d;}.cls-3{fill:#873318;}.cls-4{fill:#a6462c;}.cls-5{fill:#f1eace;}.cls-6{fill:#5b1d0e;}.cls-7{fill:#ceb79d;}.cls-8{fill:#f2c5b8;opacity:0.5;}.cls-10,.cls-9{fill:#fff;}.cls-9{opacity:0.15;}.cls-10{opacity:0.35;}</style></defs><polyline class="cls-1" points="74.4 63.29 25.1 144.68 18.09 335.95 76.74 446 607.76 403.36 582.97 259.99"/><polygon class="cls-2" points="76.74 446 74.4 63.29 25.1 144.68 18.09 335.95 76.74 446"/><polygon class="cls-3" points="166.86 364.67 229.13 364.67 220.39 402.08 162.24 402.08 166.86 364.67"/><polygon class="cls-3" points="530.07 361.06 583 361.06 575.57 392.67 526.15 392.67 530.07 361.06"/><polyline class="cls-2" points="130.03 291.73 596.51 338.27 594.2 324.92"/><polyline class="cls-3" points="513.85 312.44 536.4 363.52 528.09 415.88 561.55 413.14 572.4 360.46 538.7 315.27"/><polyline class="cls-3" points="162.4 286.33 172.69 354.08 161.03 443.48 198.49 440.89 208.83 354.21 190.09 289.2"/><polygon class="cls-4" points="229.13 364.53 214.65 351.65 153.81 353.49 166.86 364.53 229.13 364.53"/><polygon class="cls-4" points="583 361.4 572.68 353.01 519.5 351.36 530.07 361.4 583 361.4"/><polygon class="cls-5" points="302.63 304.07 315.11 319.87 312.93 338.27 398.73 315 439.34 313.85 302.63 304.07"/><polygon class="cls-6" points="205.51 394.58 187.25 394.62 194.12 386.63 189.09 382.74 197.38 376.84 206.76 380.92 201.32 386.8 205.51 394.58"/><polygon class="cls-6" points="564.4 384.68 547.79 384.96 554.43 378.7 549.92 375.1 557.74 370.43 565.71 374.83 559.88 380.07 564.4 384.68"/><path class="cls-4" d="M666.32,659.56" transform="translate(-236.03 -303.19)"/><polyline class="cls-7" points="306.74 309.27 417.68 314.46 439.34 313.85 302.63 304.07"/><polygon class="cls-2" points="325.98 319.7 376.51 309.36 370.99 308.96 322.06 316.72 325.98 319.7"/><polyline class="cls-2" points="359.59 308.14 340.02 310.33 337.89 308.96 353.79 307.73"/><polygon class="cls-2" points="335.26 310.83 333.64 309.35 317.66 310.81 319.92 312.76 335.26 310.83"/><polyline class="cls-2" points="333.25 305.97 314.91 307.19 311.64 305.58 323.84 305.3"/><polygon class="cls-4" points="82.91 242.37 131.97 278.99 135.28 268.03 93.26 228.24 82.91 242.37"/><polyline class="cls-3" points="72.24 242.83 62.15 246.27 77.88 251.47 102.89 218.82 98.52 208.77"/><path class="cls-1" d="M239.14,475,236,527.42l39.68,33.87,46.84-20.44,14.22-46.49-43.29-43.68Zm86.57,22.37-11.06,36.17-36.43,15.89-30.86-26.34,2.43-40.76L292,463.43Z" transform="translate(-236.03 -303.19)"/><polygon class="cls-8" points="89.68 194.21 78.62 230.37 42.19 246.27 11.33 219.92 13.75 179.17 56.01 160.24 89.68 194.21"/><polygon class="cls-3" points="398.73 90.85 377.13 13.99 238.82 13.99 201.53 78.18 251.7 81.4 263.23 36.21 356.11 33.14 363.51 88.59 398.73 90.85"/><polygon class="cls-3" points="74.4 63.29 94.64 289.2 618.12 326.63 572.89 91.63 74.4 63.29"/><path class="cls-5" d="M396.61,462.36l-13.67-1.95,4.76-54.62,15.86,3.51L401.45,427l15,.94,1.09-18.36s17.51,3.91,17,3.52-6.72,52-6.72,52L414,463.69l.39-22.89-13.75-.55Z" transform="translate(-236.03 -303.19)"/><path class="cls-5" d="M460.29,418.24l.94,3.44-21.46-1.87L435,450.33,443.41,465l15.74-2.5v4.07l14.06-.84V419.18Zm-.52,30.43-9.17,2.55L446,444.07l4.34-10.46,10.08,2.68Z" transform="translate(-236.03 -303.19)"/><polygon class="cls-5" points="277.71 160.42 268.8 147.14 257.39 151.36 251.76 139.22 258.95 130.73 269.11 136.36 277.71 124.32 251.76 115.05 241.14 137.74 251.3 166.05 277.71 160.42"/><polygon class="cls-5" points="296.15 167.77 295.9 167.8 281.77 169.49 278.96 105.88 296.15 100.72 296.15 135.11 306.62 120.42 321.62 124.64 304.12 141.98 326.31 168.55 308.96 168.55 296.42 149.43 296.15 167.77"/><path class="cls-5" d="M588.29,426.42l-12.66-1.64-18,45.63,15.16,5.16,2.5-9.92,15.79.31,5.55,11.88H611.1Zm-9.77,30.17L584,443.74l4.42,12.85Z" transform="translate(-236.03 -303.19)"/><path class="cls-5" d="M619.91,478.35l15.42-1.77s-7.19-34.27-6.88-34.38S642,443.35,642,443.35l-2.19-12.71L602,428.34,603.24,440l13.23.84Z" transform="translate(-236.03 -303.19)"/><polygon class="cls-5" points="427.74 179.85 415.23 177.88 405.96 127.66 419.71 127.66 422.53 147.04 435.34 146.62 432.32 128.91 446.18 129.84 453.78 182.04 440.76 181 437.22 159.12 424.51 159.12 427.74 179.85"/><path class="cls-5" d="M728.47,451.17l-15.84-10.74h-15L688.77,451s5.73,22.71,5.42,22.71c0,.2,18.44,12,18.44,12l17.19-3.33,2.09-13ZM709.37,471l-9.19-10.73,6.13-9,13.53,4.51,1.91,12.9Z" transform="translate(-236.03 -303.19)"/><polygon class="cls-5" points="517.75 184.41 505.25 184.41 492.59 135.34 504.63 135.34 525.41 158.94 518.14 136.67 531.43 136.82 544.4 184.96 534.16 184.96 511.03 158.94 517.75 184.41"/><polygon class="cls-5" points="166.54 269.25 135.28 268 191.96 172.98 215.3 175.69 244.89 273.62 212.8 272.58 208.42 254.45 174.88 253.2 166.54 269.25"/><polygon class="cls-5" points="223.74 176.1 254.16 178.81 272.08 206.21 288.75 182.15 317.51 184.54 285.21 231.11 285.42 274.98 255.31 273.62 258.12 229.55 223.74 176.1"/><path class="cls-5" d="M551.15,488.36l3,91.89s89.28,24.59,79.91-46C624.39,485.65,578.88,489.39,551.15,488.36Z" transform="translate(-236.03 -303.19)"/><polygon class="cls-5" points="412 213.09 398.25 212.05 395.02 190.69 445.76 195.59 449.51 216.01 435.65 214.86 445.55 260.18 460.45 260.18 465.56 285.08 408.57 282.17 404.92 256.85 420.65 258.41 412 213.09"/><polygon class="cls-5" points="499.78 287.01 474.93 285.08 454.62 196.68 475.4 198.09 515.25 243.1 500.88 199.81 522.6 201.99 552.14 289.2 528.69 287.95 487.44 238.72 499.78 287.01"/><path class="cls-3" d="M576.71,514.23l1.13,34.26s33.29,9.16,29.79-17.13C604,513.22,587.05,514.61,576.71,514.23Z" transform="translate(-236.03 -303.19)"/><polygon class="cls-3" points="203.25 223.3 186.49 223.3 201.04 203.19 203.25 223.3"/><polygon class="cls-5" points="599.87 135.17 597.77 108.08 464.66 60.77 448.51 62.75 599.87 135.17"/><polyline class="cls-3" points="464.66 60.77 501.77 0 547.04 56.85 597.77 63.79 597.77 108.08"/><polygon class="cls-2" points="589.6 178.43 398.73 81.73 417.04 82.77 586.02 159.85 589.6 178.43"/><polygon class="cls-3" points="417.04 82.77 602.57 173.2 635.25 152.46 417.04 45.05 417.04 82.77"/><polygon class="cls-9" points="39.36 239.83 37.88 227.68 33.67 224.27 29.95 229.53 39.36 239.83"/><polygon class="cls-9" points="39.41 228.47 41.92 242.75 45.42 241.38 40.36 227.37 39.41 228.47"/><polygon class="cls-10" points="54.99 165.54 66.9 176.01 44.63 192.28 36.04 173.89 54.99 165.54"/><polygon class="cls-10" points="67.46 178.68 57.33 185.99 61.54 187.03 74.18 184.41 67.46 178.68"/></svg>