<svg xmlns="http://www.w3.org/2000/svg" xmlns:xlink="http://www.w3.org/1999/xlink" width="1096" zoomAndPan="magnify" viewBox="0 0 1096 1003" height="1003" preserveAspectRatio="xMidYMid meet" version="1.0"><defs><clipPath id="094a4b0313"><path d="M 442 396 L 1048 396 L 1048 788.96875 L 442 788.96875 Z M 442 396 " clip-rule="nonzero"/></clipPath><clipPath id="13cb546de6"><path d="M 442 396 L 504 396 L 504 788.96875 L 442 788.96875 Z M 442 396 " clip-rule="nonzero"/></clipPath><clipPath id="075e319f7c"><path d="M 424.269531 482 L 528 482 L 528 597 L 424.269531 597 Z M 424.269531 482 " clip-rule="nonzero"/></clipPath><clipPath id="3392c0e983"><path d="M 901 331.46875 L 1038 331.46875 L 1038 443 L 901 443 Z M 901 331.46875 " clip-rule="nonzero"/></clipPath><clipPath id="32a22c30db"><path d="M 852 377 L 1076.019531 377 L 1076.019531 510 L 852 510 Z M 852 377 " clip-rule="nonzero"/></clipPath></defs><g clip-path="url(#094a4b0313)"><path fill="#70270d" d="M 500.601562 396.453125 L 450.023438 479.910156 L 442.828125 676.035156 L 503.003906 788.878906 L 1047.816406 745.15625 L 1022.382812 598.148438 " fill-opacity="1" fill-rule="nonzero"/></g><g clip-path="url(#13cb546de6)"><path fill="#48180d" d="M 503.003906 788.878906 L 500.601562 396.453125 L 450.023438 479.910156 L 442.828125 676.035156 Z M 503.003906 788.878906 " fill-opacity="1" fill-rule="nonzero"/></g><path fill="#873318" d="M 595.464844 705.484375 L 659.351562 705.484375 L 650.382812 743.84375 L 590.722656 743.84375 Z M 595.464844 705.484375 " fill-opacity="1" fill-rule="nonzero"/><path fill="#873318" d="M 968.109375 701.78125 L 1022.414062 701.78125 L 1014.789062 734.195312 L 964.085938 734.195312 Z M 968.109375 701.78125 " fill-opacity="1" fill-rule="nonzero"/><path fill="#48180d" d="M 557.675781 630.691406 L 1036.273438 678.414062 L 1033.902344 664.726562 " fill-opacity="1" fill-rule="nonzero"/><path fill="#873318" d="M 951.464844 651.929688 L 974.601562 704.304688 L 966.078125 757.992188 L 1000.40625 755.183594 L 1011.539062 701.167969 L 976.960938 654.832031 " fill-opacity="1" fill-rule="nonzero"/><path fill="#873318" d="M 590.886719 625.15625 L 601.445312 694.625 L 589.484375 786.292969 L 627.914062 783.640625 L 638.523438 694.757812 L 619.296875 628.097656 " fill-opacity="1" fill-rule="nonzero"/><path fill="#a6462c" d="M 659.351562 705.339844 L 644.496094 692.132812 L 582.074219 694.019531 L 595.464844 705.339844 Z M 659.351562 705.339844 " fill-opacity="1" fill-rule="nonzero"/><path fill="#a6462c" d="M 1022.414062 702.132812 L 1011.824219 693.527344 L 957.261719 691.835938 L 968.109375 702.132812 Z M 1022.414062 702.132812 " fill-opacity="1" fill-rule="nonzero"/><path fill="#f1eace" d="M 734.761719 643.347656 L 747.566406 659.546875 L 745.328125 678.414062 L 833.355469 654.554688 L 875.019531 653.375 Z M 734.761719 643.347656 " fill-opacity="1" fill-rule="nonzero"/><path fill="#5b1d0e" d="M 635.117188 736.152344 L 616.382812 736.195312 L 623.433594 728 L 618.269531 724.011719 L 626.777344 717.964844 L 636.398438 722.148438 L 630.820312 728.175781 Z M 635.117188 736.152344 " fill-opacity="1" fill-rule="nonzero"/><path fill="#5b1d0e" d="M 1003.328125 726.003906 L 986.289062 726.289062 L 993.101562 719.871094 L 988.472656 716.179688 L 996.496094 711.390625 L 1004.671875 715.902344 L 998.691406 721.273438 Z M 1003.328125 726.003906 " fill-opacity="1" fill-rule="nonzero"/><path fill="#ceb79d" d="M 738.976562 648.679688 L 852.796875 654 L 875.019531 653.375 L 734.761719 643.347656 " fill-opacity="1" fill-rule="nonzero"/><path fill="#48180d" d="M 758.71875 659.371094 L 810.558594 648.769531 L 804.894531 648.359375 L 754.695312 656.316406 Z M 758.71875 659.371094 " fill-opacity="1" fill-rule="nonzero"/><path fill="#48180d" d="M 793.199219 647.519531 L 773.121094 649.765625 L 770.9375 648.359375 L 787.25 647.097656 " fill-opacity="1" fill-rule="nonzero"/><path fill="#48180d" d="M 768.238281 650.277344 L 766.574219 648.761719 L 750.179688 650.257812 L 752.5 652.257812 Z M 768.238281 650.277344 " fill-opacity="1" fill-rule="nonzero"/><path fill="#48180d" d="M 766.175781 645.292969 L 747.359375 646.546875 L 744.003906 644.894531 L 756.519531 644.605469 " fill-opacity="1" fill-rule="nonzero"/><path fill="#a6462c" d="M 509.332031 580.082031 L 559.667969 617.628906 L 563.0625 606.390625 L 519.953125 565.589844 Z M 509.332031 580.082031 " fill-opacity="1" fill-rule="nonzero"/><path fill="#873318" d="M 498.386719 580.550781 L 488.035156 584.078125 L 504.171875 589.410156 L 529.832031 555.933594 L 525.347656 545.628906 " fill-opacity="1" fill-rule="nonzero"/><g clip-path="url(#075e319f7c)"><path fill="#70270d" d="M 427.460938 507.730469 L 424.238281 561.480469 L 464.949219 596.210938 L 513.007812 575.25 L 527.597656 527.582031 L 483.179688 482.792969 Z M 516.277344 530.667969 L 504.933594 567.753906 L 467.554688 584.046875 L 435.894531 557.039062 L 438.386719 515.246094 L 481.695312 495.867188 Z M 516.277344 530.667969 " fill-opacity="1" fill-rule="nonzero"/></g><path fill="#f2c5b8" d="M 516.28125 530.699219 L 504.933594 567.777344 L 467.554688 584.078125 L 435.894531 557.058594 L 438.378906 515.277344 L 481.734375 495.867188 Z M 516.28125 530.699219 " fill-opacity="0.5" fill-rule="nonzero"/><path fill="#873318" d="M 833.355469 424.714844 L 811.195312 345.902344 L 669.292969 345.902344 L 631.035156 411.722656 L 682.507812 415.023438 L 694.335938 368.6875 L 789.628906 365.539062 L 797.222656 422.398438 Z M 833.355469 424.714844 " fill-opacity="1" fill-rule="nonzero"/><path fill="#873318" d="M 500.601562 396.453125 L 521.367188 628.097656 L 1058.445312 666.480469 L 1012.039062 425.515625 Z M 500.601562 396.453125 " fill-opacity="1" fill-rule="nonzero"/><path fill="#f1eace" d="M 589.019531 494.769531 L 574.996094 492.769531 L 579.878906 436.761719 L 596.152344 440.363281 L 593.988281 458.511719 L 609.375 459.476562 L 610.496094 440.648438 C 610.496094 440.648438 628.460938 444.65625 627.9375 444.257812 C 627.414062 443.859375 621.042969 497.578125 621.042969 497.578125 L 606.863281 496.132812 L 607.261719 472.660156 L 593.15625 472.097656 Z M 589.019531 494.769531 " fill-opacity="1" fill-rule="nonzero"/><path fill="#f1eace" d="M 654.355469 449.527344 L 655.320312 453.054688 L 633.300781 451.136719 L 628.40625 482.433594 L 637.035156 497.476562 L 653.183594 494.910156 L 653.183594 499.085938 L 667.609375 498.222656 L 667.609375 450.492188 Z M 653.820312 480.730469 L 644.414062 483.34375 L 639.695312 476.015625 L 644.144531 465.289062 L 654.488281 468.035156 Z M 653.820312 480.730469 " fill-opacity="1" fill-rule="nonzero"/><path fill="#f1eace" d="M 709.191406 496.050781 L 700.050781 482.433594 L 688.34375 486.761719 L 682.570312 474.3125 L 689.945312 465.605469 L 700.371094 471.378906 L 709.191406 459.035156 L 682.570312 449.527344 L 671.671875 472.792969 L 682.097656 501.824219 Z M 709.191406 496.050781 " fill-opacity="1" fill-rule="nonzero"/><path fill="#f1eace" d="M 728.113281 503.585938 L 727.855469 503.617188 L 713.359375 505.351562 L 710.476562 440.125 L 728.113281 434.835938 L 728.113281 470.097656 L 738.855469 455.035156 L 754.242188 459.363281 L 736.289062 477.140625 L 759.054688 504.386719 L 741.253906 504.386719 L 728.390625 484.78125 Z M 728.113281 503.585938 " fill-opacity="1" fill-rule="nonzero"/><path fill="#f1eace" d="M 785.679688 457.917969 L 772.691406 456.234375 L 754.222656 503.023438 L 769.777344 508.3125 L 772.34375 498.140625 L 788.542969 498.460938 L 794.234375 510.640625 L 809.082031 510.640625 Z M 775.65625 488.851562 L 781.277344 475.675781 L 785.8125 488.851562 Z M 775.65625 488.851562 " fill-opacity="1" fill-rule="nonzero"/><path fill="#f1eace" d="M 818.121094 511.164062 L 833.941406 509.347656 C 833.941406 509.347656 826.566406 474.210938 826.882812 474.097656 C 827.199219 473.984375 840.785156 475.277344 840.785156 475.277344 L 838.539062 462.242188 L 799.746094 459.886719 L 801.019531 471.839844 L 814.589844 472.703125 Z M 818.121094 511.164062 " fill-opacity="1" fill-rule="nonzero"/><path fill="#f1eace" d="M 863.121094 515.972656 L 850.285156 513.953125 L 840.773438 462.457031 L 854.882812 462.457031 L 857.773438 482.332031 L 870.917969 481.898438 L 867.820312 463.742188 L 882.039062 464.695312 L 889.835938 518.21875 L 876.476562 517.152344 L 872.847656 494.71875 L 859.804688 494.71875 Z M 863.121094 515.972656 " fill-opacity="1" fill-rule="nonzero"/><path fill="#f1eace" d="M 929.5 483.292969 L 913.25 472.28125 L 897.859375 472.28125 L 888.769531 483.121094 C 888.769531 483.121094 894.648438 506.40625 894.332031 506.40625 C 894.332031 506.613281 913.25 518.710938 913.25 518.710938 L 930.886719 515.296875 L 933.03125 501.964844 Z M 909.90625 503.628906 L 900.476562 492.625 L 906.765625 483.398438 L 920.648438 488.019531 L 922.605469 501.25 Z M 909.90625 503.628906 " fill-opacity="1" fill-rule="nonzero"/><path fill="#f1eace" d="M 955.46875 520.648438 L 942.644531 520.648438 L 929.65625 470.332031 L 942.007812 470.332031 L 963.328125 494.53125 L 955.867188 471.699219 L 969.503906 471.851562 L 982.808594 521.214844 L 972.304688 521.214844 L 948.574219 494.53125 Z M 955.46875 520.648438 " fill-opacity="1" fill-rule="nonzero"/><path fill="#f1eace" d="M 595.136719 607.640625 L 563.0625 606.359375 L 621.214844 508.929688 L 645.164062 511.707031 L 675.519531 612.125 L 642.597656 611.058594 L 638.101562 592.464844 L 603.691406 591.183594 Z M 595.136719 607.640625 " fill-opacity="1" fill-rule="nonzero"/><path fill="#f1eace" d="M 653.820312 512.128906 L 685.03125 514.90625 L 703.417969 543.003906 L 720.519531 518.332031 L 750.027344 520.78125 L 716.886719 568.535156 L 717.101562 613.519531 L 686.210938 612.125 L 689.09375 566.933594 Z M 653.820312 512.128906 " fill-opacity="1" fill-rule="nonzero"/><path fill="#f1eace" d="M 747.574219 521.429688 L 750.652344 615.652344 C 750.652344 615.652344 842.25 640.863281 832.636719 568.484375 C 822.71875 518.648438 776.023438 522.484375 747.574219 521.429688 Z M 747.574219 521.429688 " fill-opacity="1" fill-rule="nonzero"/><path fill="#f1eace" d="M 846.972656 550.058594 L 832.863281 548.992188 L 829.550781 527.089844 L 881.609375 532.113281 L 885.457031 553.050781 L 871.234375 551.871094 L 881.394531 598.34375 L 896.679688 598.34375 L 901.921875 623.875 L 843.453125 620.890625 L 839.707031 594.925781 L 855.847656 596.527344 Z M 846.972656 550.058594 " fill-opacity="1" fill-rule="nonzero"/><path fill="#f1eace" d="M 937.03125 625.851562 L 911.535156 623.875 L 890.699219 533.230469 L 912.019531 534.675781 L 952.902344 580.828125 L 938.160156 536.441406 L 960.445312 538.675781 L 990.75 628.097656 L 966.691406 626.816406 L 924.371094 576.335938 Z M 937.03125 625.851562 " fill-opacity="1" fill-rule="nonzero"/><path fill="#873318" d="M 773.796875 547.953125 L 774.957031 583.085938 C 774.957031 583.085938 809.113281 592.476562 805.523438 565.519531 C 801.796875 546.917969 784.40625 548.34375 773.796875 547.953125 Z M 773.796875 547.953125 " fill-opacity="1" fill-rule="nonzero"/><path fill="#873318" d="M 632.800781 560.527344 L 615.605469 560.527344 L 630.53125 539.90625 Z M 632.800781 560.527344 " fill-opacity="1" fill-rule="nonzero"/><path fill="#f1eace" d="M 1039.722656 470.160156 L 1037.566406 442.382812 L 901 393.871094 L 884.429688 395.902344 Z M 1039.722656 470.160156 " fill-opacity="1" fill-rule="nonzero"/><g clip-path="url(#3392c0e983)"><path fill="#873318" d="M 901 393.871094 L 939.074219 331.558594 L 985.519531 389.851562 L 1037.566406 396.96875 L 1037.566406 442.382812 " fill-opacity="1" fill-rule="nonzero"/></g><path fill="#48180d" d="M 1029.183594 514.515625 L 833.355469 415.363281 L 852.140625 416.429688 L 1025.511719 495.464844 Z M 1029.183594 514.515625 " fill-opacity="1" fill-rule="nonzero"/><g clip-path="url(#32a22c30db)"><path fill="#873318" d="M 852.140625 416.429688 L 1042.492188 509.15625 L 1076.019531 487.886719 L 852.140625 377.75 Z M 852.140625 416.429688 " fill-opacity="1" fill-rule="nonzero"/></g><path fill="#ffffff" d="M 464.652344 577.476562 L 463.132812 565.015625 L 458.816406 561.519531 L 454.996094 566.914062 Z M 464.652344 577.476562 " fill-opacity="0.15" fill-rule="nonzero"/><path fill="#ffffff" d="M 464.703125 565.828125 L 467.277344 580.46875 L 470.871094 579.066406 L 465.679688 564.699219 Z M 464.703125 565.828125 " fill-opacity="0.15" fill-rule="nonzero"/><path fill="#ffffff" d="M 480.6875 501.300781 L 492.90625 512.035156 L 470.058594 528.71875 L 461.246094 509.863281 Z M 480.6875 501.300781 " fill-opacity="0.35" fill-rule="nonzero"/><path fill="#ffffff" d="M 493.480469 514.773438 L 483.089844 522.269531 L 487.410156 523.335938 L 500.375 520.648438 Z M 493.480469 514.773438 " fill-opacity="0.35" fill-rule="nonzero"/></svg>